<svg xmlns="http://www.w3.org/2000/svg" width="560" height="200" viewBox="0 0 560 200" role="img" aria-label="Como eu trabalho"><title>Como eu trabalho</title><defs><radialGradient id="g" cx="90%" cy="0%" r="80%"><stop offset="0%" stop-color="#2E6BD6" stop-opacity="0.1"/><stop offset="100%" stop-color="#2E6BD6" stop-opacity="0"/></radialGradient><clipPath id="c"><rect width="560" height="200" rx="14"/></clipPath></defs><g clip-path="url(#c)"><rect width="560" height="200" fill="#000000"/><rect width="560" height="200" fill="url(#g)"/><g opacity="0.4"><path d="M578,-18 L512,356 M578,-18 L417,326 M578,-18 L334,273 M578,-18 L267,200 M578,-18 L221,112 M578,-18 L199,15 M578,-18 L204,-84" fill="none" stroke="#2A313D" stroke-width="0.9"/><path d="M568,41 Q562,34 553,36 Q549,28 539,28 Q538,18 529,16 Q530,7 522,3 Q525,-6 518,-13 Q524,-20 519,-28 M557,100 Q546,85 527,91 Q520,73 501,74 Q498,55 480,51 Q482,32 465,23 Q473,5 458,-8 Q470,-23 460,-39 M545,169 Q527,145 498,154 Q486,126 456,128 Q452,98 422,91 Q426,61 399,47 Q411,19 389,-1 Q407,-25 391,-51 M530,253 Q504,218 462,231 Q445,191 401,193 Q396,149 353,140 Q358,96 320,76 Q336,36 304,6 Q331,-29 307,-66 M512,356 Q475,308 417,326 Q394,270 334,273 Q326,213 267,200 Q275,140 221,112 Q244,56 199,15 Q236,-33 204,-84" fill="none" stroke="#232A35" stroke-width="0.9"/></g><rect x="0" y="0" width="4" height="200" fill="#2E6BD6"/><text x="28" y="40" font-family="'DejaVu Sans Mono',Consolas,monospace" font-size="12" letter-spacing="2" fill="#2E6BD6">COMO EU TRABALHO</text><circle cx="34" cy="68" r="3.5" fill="#E23636"/><text x="50" y="72" font-family="Verdana,DejaVu Sans,Geneva,sans-serif" font-size="12.5" fill="#C6D0DE">Camadas separadas: Domain · Application · Infra · API</text><circle cx="34" cy="94" r="3.5" fill="#E23636"/><text x="50" y="98" font-family="Verdana,DejaVu Sans,Geneva,sans-serif" font-size="12.5" fill="#C6D0DE">Testes de unidade e integração com xUnit</text><circle cx="34" cy="120" r="3.5" fill="#2E6BD6"/><text x="50" y="124" font-family="Verdana,DejaVu Sans,Geneva,sans-serif" font-size="12.5" fill="#C6D0DE">README, Swagger e logs estruturados sempre</text><circle cx="34" cy="146" r="3.5" fill="#2E6BD6"/><text x="50" y="150" font-family="Verdana,DejaVu Sans,Geneva,sans-serif" font-size="12.5" fill="#C6D0DE">Docker Compose para subir a stack inteira</text><circle cx="34" cy="172" r="3.5" fill="#E23636"/><text x="50" y="176" font-family="Verdana,DejaVu Sans,Geneva,sans-serif" font-size="12.5" fill="#C6D0DE">JWT, hash + salt e rotas protegidas por padrão</text><rect x="0.5" y="0.5" width="559" height="199" rx="14" fill="none" stroke="#2E6BD6" stroke-opacity="0.3"/></g></svg>
